<?xml version="1.0" encoding="UTF-8" standalone="no"?>
<!-- Generator: Adobe Illustrator 19.0.0, SVG Export Plug-In . SVG Version: 6.00 Build 0)  -->

<svg
   xmlns:dc="http://purl.org/dc/elements/1.1/"
   xmlns:cc="http://creativecommons.org/ns#"
   xmlns:rdf="http://www.w3.org/1999/02/22-rdf-syntax-ns#"
   xmlns:svg="http://www.w3.org/2000/svg"
   xmlns="http://www.w3.org/2000/svg"
   xmlns:sodipodi="http://sodipodi.sourceforge.net/DTD/sodipodi-0.dtd"
   xmlns:inkscape="http://www.inkscape.org/namespaces/inkscape"
   version="1.1"
   id="Capa_1"
   x="0px"
   y="0px"
   viewBox="0 0 502.643 502.643"
   style="enable-background:new 0 0 502.643 502.643;"
   xml:space="preserve"
   width="512px"
   height="512px"
   inkscape:version="0.91 r13725"
   sodipodi:docname="aboutus.svg"><metadata
     id="metadata83"><rdf:RDF><cc:Work
         rdf:about=""><dc:format>image/svg+xml</dc:format><dc:type
           rdf:resource="http://purl.org/dc/dcmitype/StillImage" /></cc:Work></rdf:RDF></metadata><defs
     id="defs81" /><sodipodi:namedview
     pagecolor="#ffffff"
     bordercolor="#666666"
     borderopacity="1"
     objecttolerance="10"
     gridtolerance="10"
     guidetolerance="10"
     inkscape:pageopacity="0"
     inkscape:pageshadow="2"
     inkscape:window-width="1366"
     inkscape:window-height="705"
     id="namedview79"
     showgrid="false"
     inkscape:zoom="0.4609375"
     inkscape:cx="256"
     inkscape:cy="256"
     inkscape:window-x="-8"
     inkscape:window-y="-8"
     inkscape:window-maximized="1"
     inkscape:current-layer="Capa_1" /><g
     id="g3"
     transform="matrix(0.58474515,0,0,0.58474515,104.36232,104.36247)"><g
       id="g5"><path
         d="m 251.256,237.591 c 37.166,0 67.042,-30.048 67.042,-66.977 0.043,-37.037 -29.876,-66.999 -67.042,-66.999 -36.908,0 -66.869,29.962 -66.869,66.999 0,36.973 29.962,66.977 66.869,66.977 z"
         id="path7"
         inkscape:connector-curvature="0"
         style="fill:#ffffff" /><path
         d="m 305.032,248.506 -107.379,0 c -19.198,0 -34.923,17.602 -34.923,39.194 l 0,107.854 c 0,1.186 0.604,2.243 0.669,3.473 l 175.823,0 c 0.129,-1.229 0.626,-2.286 0.626,-3.473 l 0,-107.854 c 0.064,-21.592 -15.661,-39.194 -34.816,-39.194 z"
         id="path9"
         inkscape:connector-curvature="0"
         style="fill:#ffffff" /><path
         d="m 431.588,269.559 c 29.832,0 53.754,-24.008 53.754,-53.668 0,-29.66 -23.922,-53.711 -53.754,-53.711 -29.617,0 -53.582,24.051 -53.582,53.711 -0.064,29.639 23.966,53.668 53.582,53.668 z"
         id="path11"
         inkscape:connector-curvature="0"
         style="fill:#ffffff" /><path
         d="m 474.708,278.317 -86.046,0 c -15.445,0 -28.064,14.107 -28.064,31.472 l 0,86.413 c 0,0.928 0.453,1.812 0.518,2.826 l 141.03,0 c 0.065,-1.014 0.496,-1.898 0.496,-2.826 l 0,-86.413 c 0.065,-17.365 -12.532,-31.472 -27.934,-31.472 z"
         id="path13"
         inkscape:connector-curvature="0"
         style="fill:#ffffff" /><path
         d="m 71.011,269.559 c 29.789,0 53.733,-24.008 53.733,-53.668 0,-29.66 -23.944,-53.711 -53.733,-53.711 -29.638,0 -53.603,24.051 -53.603,53.711 0,29.66 23.965,53.668 53.603,53.668 l 0,0 z"
         id="path15"
         inkscape:connector-curvature="0"
         style="fill:#ffffff" /><path
         d="m 114.109,278.317 -86.132,0 C 12.576,278.317 0,292.424 0,309.789 l 0,86.413 c 0,0.928 0.453,1.812 0.539,2.826 l 141.03,0 c 0.065,-1.014 0.475,-1.898 0.475,-2.826 l 0,-86.413 c 0.043,-17.365 -12.555,-31.472 -27.935,-31.472 z"
         id="path17"
         inkscape:connector-curvature="0"
         style="fill:#ffffff" /></g><g
       id="g19" /><g
       id="g21" /><g
       id="g23" /><g
       id="g25" /><g
       id="g27" /><g
       id="g29" /><g
       id="g31" /><g
       id="g33" /><g
       id="g35" /><g
       id="g37" /><g
       id="g39" /><g
       id="g41" /><g
       id="g43" /><g
       id="g45" /><g
       id="g47" /></g><g
     id="g49"
     transform="matrix(0.58474515,0,0,0.58474515,104.36232,104.36247)" /><g
     id="g51"
     transform="matrix(0.58474515,0,0,0.58474515,104.36232,104.36247)" /><g
     id="g53"
     transform="matrix(0.58474515,0,0,0.58474515,104.36232,104.36247)" /><g
     id="g55"
     transform="matrix(0.58474515,0,0,0.58474515,104.36232,104.36247)" /><g
     id="g57"
     transform="matrix(0.58474515,0,0,0.58474515,104.36232,104.36247)" /><g
     id="g59"
     transform="matrix(0.58474515,0,0,0.58474515,104.36232,104.36247)" /><g
     id="g61"
     transform="matrix(0.58474515,0,0,0.58474515,104.36232,104.36247)" /><g
     id="g63"
     transform="matrix(0.58474515,0,0,0.58474515,104.36232,104.36247)" /><g
     id="g65"
     transform="matrix(0.58474515,0,0,0.58474515,104.36232,104.36247)" /><g
     id="g67"
     transform="matrix(0.58474515,0,0,0.58474515,104.36232,104.36247)" /><g
     id="g69"
     transform="matrix(0.58474515,0,0,0.58474515,104.36232,104.36247)" /><g
     id="g71"
     transform="matrix(0.58474515,0,0,0.58474515,104.36232,104.36247)" /><g
     id="g73"
     transform="matrix(0.58474515,0,0,0.58474515,104.36232,104.36247)" /><g
     id="g75"
     transform="matrix(0.58474515,0,0,0.58474515,104.36232,104.36247)" /><g
     id="g77"
     transform="matrix(0.58474515,0,0,0.58474515,104.36232,104.36247)" /></svg>