<?xml version="1.0" encoding="UTF-8" standalone="no"?>
<!-- Generator: Adobe Illustrator 19.0.0, SVG Export Plug-In . SVG Version: 6.00 Build 0)  -->

<svg
   xmlns:dc="http://purl.org/dc/elements/1.1/"
   xmlns:cc="http://creativecommons.org/ns#"
   xmlns:rdf="http://www.w3.org/1999/02/22-rdf-syntax-ns#"
   xmlns:svg="http://www.w3.org/2000/svg"
   xmlns="http://www.w3.org/2000/svg"
   xmlns:sodipodi="http://sodipodi.sourceforge.net/DTD/sodipodi-0.dtd"
   xmlns:inkscape="http://www.inkscape.org/namespaces/inkscape"
   version="1.1"
   id="Layer_1"
   x="0px"
   y="0px"
   viewBox="0 0 512 512"
   style="enable-background:new 0 0 512 512;"
   xml:space="preserve"
   width="512px"
   height="512px"
   inkscape:version="0.91 r13725"
   sodipodi:docname="blog-hover.svg"><metadata
     id="metadata59"><rdf:RDF><cc:Work
         rdf:about=""><dc:format>image/svg+xml</dc:format><dc:type
           rdf:resource="http://purl.org/dc/dcmitype/StillImage" /><dc:title></dc:title></cc:Work></rdf:RDF></metadata><defs
     id="defs57" /><sodipodi:namedview
     pagecolor="#ffffff"
     bordercolor="#666666"
     borderopacity="1"
     objecttolerance="10"
     gridtolerance="10"
     guidetolerance="10"
     inkscape:pageopacity="0"
     inkscape:pageshadow="2"
     inkscape:window-width="1366"
     inkscape:window-height="705"
     id="namedview55"
     showgrid="false"
     inkscape:zoom="0.4609375"
     inkscape:cx="256"
     inkscape:cy="256"
     inkscape:window-x="-8"
     inkscape:window-y="-8"
     inkscape:window-maximized="1"
     inkscape:current-layer="Layer_1" /><g
     id="g3"
     transform="matrix(0.58474576,0,0,0.58474576,106.30508,106.30508)"
     style="fill:#c50b0b;fill-opacity:1"><g
       id="g5"
       style="fill:#c50b0b;fill-opacity:1"><g
         id="g7"
         style="fill:#c50b0b;fill-opacity:1"><path
           d="m 93.238,220.968 172.463,0 c 4.466,0 8.084,-3.619 8.084,-8.084 0,-4.465 -3.618,-8.084 -8.084,-8.084 l -172.463,0 c -4.466,0 -8.084,3.619 -8.084,8.084 0,4.465 3.618,8.084 8.084,8.084 z"
           id="path9"
           inkscape:connector-curvature="0"
           style="fill:#c50b0b;fill-opacity:1" /><path
           d="m 93.238,177.853 97.01,0 c 4.466,0 8.084,-3.619 8.084,-8.084 0,-4.465 -3.618,-8.084 -8.084,-8.084 l -97.01,0 c -4.466,0 -8.084,3.619 -8.084,8.084 0,4.465 3.618,8.084 8.084,8.084 z"
           id="path11"
           inkscape:connector-curvature="0"
           style="fill:#c50b0b;fill-opacity:1" /><path
           d="m 114.796,398.282 280.253,0 c 16.344,0 29.642,-13.298 29.642,-29.642 l 0,-91.082 c 0,-5.206 -1.371,-10.333 -3.968,-14.822 -2.233,-3.865 -7.179,-5.189 -11.044,-2.953 -3.866,2.233 -5.188,7.179 -2.953,11.044 1.176,2.034 1.797,4.362 1.797,6.732 l 0,91.082 c 0,7.43 -6.044,13.474 -13.474,13.474 l -280.253,0 c -7.43,0 -13.474,-6.044 -13.474,-13.474 l 0,-91.082 c 0,-7.43 6.044,-13.474 13.474,-13.474 l 150.905,0 c 4.466,0 8.084,-3.619 8.084,-8.084 0,-4.466 -3.618,-8.084 -8.084,-8.084 l -150.905,0 c -16.344,0 -29.642,13.298 -29.642,29.642 l 0,91.082 c 0,16.343 13.298,29.641 29.642,29.641 z"
           id="path13"
           inkscape:connector-curvature="0"
           style="fill:#c50b0b;fill-opacity:1" /><path
           d="m 477.068,412.237 c 1.684,-5.067 2.596,-10.484 2.596,-16.11 l 0,-237.138 c 0,-28.231 -22.969,-51.2 -51.2,-51.2 l -45.81,0 0,-78.147 C 382.653,13.298 369.355,0 353.01,0 L 331.452,0 C 315.108,0 301.81,13.298 301.81,29.642 l 0,78.147 -218.273,0 c -28.231,0 -51.2,22.969 -51.2,51.2 l 0,237.137 c 0,5.627 0.912,11.043 2.596,16.11 C 14.43,419.065 0,438.368 0,460.8 0,489.031 22.969,512 51.2,512 l 409.6,0 c 28.231,0 51.2,-22.969 51.2,-51.2 0,-22.432 -14.43,-41.735 -34.932,-48.563 z M 317.979,29.642 c 0,-7.43 6.044,-13.474 13.474,-13.474 l 21.558,0 c 7.43,0 13.474,6.044 13.474,13.474 l 0,13.474 -48.505,0 0,-13.474 z m 48.505,29.642 0,188.632 -16.168,0 0,-188.632 16.168,0 z m -48.505,0 16.168,0 0,188.632 -16.168,0 0,-188.632 z m 0,204.8 48.505,0 0,20.66 c 0,0.579 -0.192,1.153 -0.539,1.617 l -21.558,28.743 c -0.704,0.938 -1.652,1.078 -2.156,1.078 -0.503,0 -1.452,-0.14 -2.156,-1.078 l -21.557,-28.741 c -0.348,-0.466 -0.54,-1.04 -0.54,-1.619 l 0,-20.66 z M 48.505,158.989 c 0,-19.317 15.715,-35.032 35.032,-35.032 l 218.274,0 0,37.726 -57.667,0 c -4.466,0 -8.084,3.619 -8.084,8.084 0,4.465 3.618,8.084 8.084,8.084 l 57.667,0 0,106.892 c 0,4.053 1.339,8.071 3.773,11.318 l 21.558,28.743 c 3.596,4.796 9.096,7.545 15.091,7.545 5.994,0 11.495,-2.75 15.091,-7.545 l 21.559,-28.745 c 2.433,-3.244 3.772,-7.263 3.772,-11.316 l 0,-63.776 33.954,0 c 4.466,0 8.084,-3.619 8.084,-8.084 0,-4.465 -3.619,-8.084 -8.084,-8.084 l -33.954,0 0,-26.947 33.954,0 c 4.466,0 8.084,-3.619 8.084,-8.084 0,-4.465 -3.619,-8.084 -8.084,-8.084 l -33.954,0 0,-37.726 45.81,0 c 19.317,0 35.032,15.715 35.032,35.032 l 0,237.137 c 0,19.317 -15.715,35.032 -35.032,35.032 l -344.928,0 c -19.317,0 -35.032,-15.715 -35.032,-35.032 l 0,-237.138 z m 412.295,336.843 -409.6,0 c -19.317,0 -35.032,-15.715 -35.032,-35.032 0,-16.257 11.071,-30.113 26.426,-33.963 9.349,12.434 24.222,20.49 40.943,20.49 l 344.926,0 c 16.72,0 31.594,-8.056 40.943,-20.49 15.355,3.85 26.426,17.707 26.426,33.963 0,19.317 -15.715,35.032 -35.032,35.032 z"
           id="path15"
           inkscape:connector-curvature="0"
           style="fill:#c50b0b;fill-opacity:1" /><path
           d="m 235.52,463.495 -1.078,0 c -4.466,0 -8.084,3.618 -8.084,8.084 0,4.466 3.618,8.084 8.084,8.084 l 1.078,0 c 4.466,0 8.084,-3.618 8.084,-8.084 0,-4.466 -3.618,-8.084 -8.084,-8.084 z"
           id="path17"
           inkscape:connector-curvature="0"
           style="fill:#c50b0b;fill-opacity:1" /><path
           d="m 433.853,463.495 -161.685,0 c -4.466,0 -8.084,3.618 -8.084,8.084 0,4.466 3.618,8.084 8.084,8.084 l 161.684,0 c 4.466,0 8.084,-3.618 8.084,-8.084 0.001,-4.466 -3.618,-8.084 -8.083,-8.084 z"
           id="path19"
           inkscape:connector-curvature="0"
           style="fill:#c50b0b;fill-opacity:1" /><path
           d="m 202.105,463.495 -1.078,0 c -4.466,0 -8.084,3.618 -8.084,8.084 0,4.466 3.618,8.084 8.084,8.084 l 1.078,0 c 4.466,0 8.084,-3.618 8.084,-8.084 0,-4.466 -3.618,-8.084 -8.084,-8.084 z"
           id="path21"
           inkscape:connector-curvature="0"
           style="fill:#c50b0b;fill-opacity:1" /><path
           d="m 164.379,463.495 -86.232,0 c -4.466,0 -8.084,3.618 -8.084,8.084 0,4.466 3.618,8.084 8.084,8.084 l 86.232,0 c 4.466,0 8.084,-3.618 8.084,-8.084 0,-4.466 -3.618,-8.084 -8.084,-8.084 z"
           id="path23"
           inkscape:connector-curvature="0"
           style="fill:#c50b0b;fill-opacity:1" /></g></g></g><g
     id="g25"
     transform="matrix(0.58474576,0,0,0.58474576,106.30508,106.30508)"
     style="fill:#c50b0b;fill-opacity:1" /><g
     id="g27"
     transform="matrix(0.58474576,0,0,0.58474576,106.30508,106.30508)"
     style="fill:#c50b0b;fill-opacity:1" /><g
     id="g29"
     transform="matrix(0.58474576,0,0,0.58474576,106.30508,106.30508)"
     style="fill:#c50b0b;fill-opacity:1" /><g
     id="g31"
     transform="matrix(0.58474576,0,0,0.58474576,106.30508,106.30508)"
     style="fill:#c50b0b;fill-opacity:1" /><g
     id="g33"
     transform="matrix(0.58474576,0,0,0.58474576,106.30508,106.30508)"
     style="fill:#c50b0b;fill-opacity:1" /><g
     id="g35"
     transform="matrix(0.58474576,0,0,0.58474576,106.30508,106.30508)"
     style="fill:#c50b0b;fill-opacity:1" /><g
     id="g37"
     transform="matrix(0.58474576,0,0,0.58474576,106.30508,106.30508)"
     style="fill:#c50b0b;fill-opacity:1" /><g
     id="g39"
     transform="matrix(0.58474576,0,0,0.58474576,106.30508,106.30508)"
     style="fill:#c50b0b;fill-opacity:1" /><g
     id="g41"
     transform="matrix(0.58474576,0,0,0.58474576,106.30508,106.30508)"
     style="fill:#c50b0b;fill-opacity:1" /><g
     id="g43"
     transform="matrix(0.58474576,0,0,0.58474576,106.30508,106.30508)"
     style="fill:#c50b0b;fill-opacity:1" /><g
     id="g45"
     transform="matrix(0.58474576,0,0,0.58474576,106.30508,106.30508)"
     style="fill:#c50b0b;fill-opacity:1" /><g
     id="g47"
     transform="matrix(0.58474576,0,0,0.58474576,106.30508,106.30508)"
     style="fill:#c50b0b;fill-opacity:1" /><g
     id="g49"
     transform="matrix(0.58474576,0,0,0.58474576,106.30508,106.30508)"
     style="fill:#c50b0b;fill-opacity:1" /><g
     id="g51"
     transform="matrix(0.58474576,0,0,0.58474576,106.30508,106.30508)"
     style="fill:#c50b0b;fill-opacity:1" /><g
     id="g53"
     transform="matrix(0.58474576,0,0,0.58474576,106.30508,106.30508)"
     style="fill:#c50b0b;fill-opacity:1" /></svg>