<?xml version="1.0" encoding="UTF-8" standalone="no"?>
<!-- Generator: Adobe Illustrator 18.1.1, SVG Export Plug-In . SVG Version: 6.00 Build 0)  -->

<svg
   xmlns:dc="http://purl.org/dc/elements/1.1/"
   xmlns:cc="http://creativecommons.org/ns#"
   xmlns:rdf="http://www.w3.org/1999/02/22-rdf-syntax-ns#"
   xmlns:svg="http://www.w3.org/2000/svg"
   xmlns="http://www.w3.org/2000/svg"
   xmlns:sodipodi="http://sodipodi.sourceforge.net/DTD/sodipodi-0.dtd"
   xmlns:inkscape="http://www.inkscape.org/namespaces/inkscape"
   version="1.1"
   id="Capa_1"
   x="0px"
   y="0px"
   viewBox="0 0 27.02 27.02"
   style="enable-background:new 0 0 27.02 27.02;"
   xml:space="preserve"
   width="512px"
   height="512px"
   inkscape:version="0.91 r13725"
   sodipodi:docname="home.svg"><metadata
     id="metadata45"><rdf:RDF><cc:Work
         rdf:about=""><dc:format>image/svg+xml</dc:format><dc:type
           rdf:resource="http://purl.org/dc/dcmitype/StillImage" /></cc:Work></rdf:RDF></metadata><defs
     id="defs43" /><sodipodi:namedview
     pagecolor="#ffffff"
     bordercolor="#666666"
     borderopacity="1"
     objecttolerance="10"
     gridtolerance="10"
     guidetolerance="10"
     inkscape:pageopacity="0"
     inkscape:pageshadow="2"
     inkscape:window-width="1366"
     inkscape:window-height="705"
     id="namedview41"
     showgrid="false"
     inkscape:zoom="0.4609375"
     inkscape:cx="256"
     inkscape:cy="256"
     inkscape:window-x="-8"
     inkscape:window-y="-8"
     inkscape:window-maximized="1"
     inkscape:current-layer="Capa_1" /><g
     id="g3"
     transform="matrix(0.58474577,0,0,0.58474577,5.6100847,5.6100847)"><path
       d="m 3.674,24.876 c 0,0 -0.024,0.604 0.566,0.604 0.734,0 6.811,-0.008 6.811,-0.008 l 0.01,-5.581 c 0,0 -0.096,-0.92 0.797,-0.92 l 2.826,0 c 1.056,0 0.991,0.92 0.991,0.92 l -0.012,5.563 c 0,0 5.762,0 6.667,0 0.749,0 0.715,-0.752 0.715,-0.752 l 0,-10.289 -9.396,-8.358 -9.975,8.358 c 0,0 0,10.463 0,10.463 z"
       id="path5"
       inkscape:connector-curvature="0"
       style="fill:#ffffff" /><path
       d="m 0,13.635 c 0,0 0.847,1.561 2.694,0 l 11.038,-9.338 10.349,9.28 c 2.138,1.542 2.939,0 2.939,0 L 13.732,1.54 0,13.635 Z"
       id="path7"
       inkscape:connector-curvature="0"
       style="fill:#ffffff" /><polygon
       points="21.168,4.275 21.179,7.503 23.83,9.752 23.83,4.275 "
       id="polygon9"
       style="fill:#ffffff" /></g><g
     id="g11"
     transform="matrix(0.58474577,0,0,0.58474577,5.6100847,5.6100847)" /><g
     id="g13"
     transform="matrix(0.58474577,0,0,0.58474577,5.6100847,5.6100847)" /><g
     id="g15"
     transform="matrix(0.58474577,0,0,0.58474577,5.6100847,5.6100847)" /><g
     id="g17"
     transform="matrix(0.58474577,0,0,0.58474577,5.6100847,5.6100847)" /><g
     id="g19"
     transform="matrix(0.58474577,0,0,0.58474577,5.6100847,5.6100847)" /><g
     id="g21"
     transform="matrix(0.58474577,0,0,0.58474577,5.6100847,5.6100847)" /><g
     id="g23"
     transform="matrix(0.58474577,0,0,0.58474577,5.6100847,5.6100847)" /><g
     id="g25"
     transform="matrix(0.58474577,0,0,0.58474577,5.6100847,5.6100847)" /><g
     id="g27"
     transform="matrix(0.58474577,0,0,0.58474577,5.6100847,5.6100847)" /><g
     id="g29"
     transform="matrix(0.58474577,0,0,0.58474577,5.6100847,5.6100847)" /><g
     id="g31"
     transform="matrix(0.58474577,0,0,0.58474577,5.6100847,5.6100847)" /><g
     id="g33"
     transform="matrix(0.58474577,0,0,0.58474577,5.6100847,5.6100847)" /><g
     id="g35"
     transform="matrix(0.58474577,0,0,0.58474577,5.6100847,5.6100847)" /><g
     id="g37"
     transform="matrix(0.58474577,0,0,0.58474577,5.6100847,5.6100847)" /><g
     id="g39"
     transform="matrix(0.58474577,0,0,0.58474577,5.6100847,5.6100847)" /></svg>