<?xml version="1.0" encoding="UTF-8" standalone="no"?>
<!-- Generator: Adobe Illustrator 19.0.0, SVG Export Plug-In . SVG Version: 6.00 Build 0)  -->

<svg
   xmlns:dc="http://purl.org/dc/elements/1.1/"
   xmlns:cc="http://creativecommons.org/ns#"
   xmlns:rdf="http://www.w3.org/1999/02/22-rdf-syntax-ns#"
   xmlns:svg="http://www.w3.org/2000/svg"
   xmlns="http://www.w3.org/2000/svg"
   xmlns:sodipodi="http://sodipodi.sourceforge.net/DTD/sodipodi-0.dtd"
   xmlns:inkscape="http://www.inkscape.org/namespaces/inkscape"
   version="1.1"
   id="Capa_1"
   x="0px"
   y="0px"
   viewBox="0 0 60 60"
   style="enable-background:new 0 0 60 60;"
   xml:space="preserve"
   width="512px"
   height="512px"
   inkscape:version="0.91 r13725"
   sodipodi:docname="myprojects.svg"><metadata
     id="metadata43"><rdf:RDF><cc:Work
         rdf:about=""><dc:format>image/svg+xml</dc:format><dc:type
           rdf:resource="http://purl.org/dc/dcmitype/StillImage" /></cc:Work></rdf:RDF></metadata><defs
     id="defs41" /><sodipodi:namedview
     pagecolor="#ffffff"
     bordercolor="#666666"
     borderopacity="1"
     objecttolerance="10"
     gridtolerance="10"
     guidetolerance="10"
     inkscape:pageopacity="0"
     inkscape:pageshadow="2"
     inkscape:window-width="1366"
     inkscape:window-height="705"
     id="namedview39"
     showgrid="false"
     inkscape:zoom="0.4609375"
     inkscape:cx="256"
     inkscape:cy="256"
     inkscape:window-x="-8"
     inkscape:window-y="-8"
     inkscape:window-maximized="1"
     inkscape:current-layer="Capa_1" /><g
     id="g3"
     transform="matrix(0.58491873,0,0,0.58491873,12.452438,12.452438)"><path
       d="m 30,20.5 c -6.617,0 -12,5.383 -12,12 0,6.617 5.383,12 12,12 6.617,0 12,-5.383 12,-12 0,-6.617 -5.383,-12 -12,-12 z"
       id="path5"
       inkscape:connector-curvature="0"
       style="fill:#ffffff" /><path
       d="m 55.201,15.5 -8.524,0 -4,-10 -25.354,0 -4,10 -1.323,0 0,-5 -6,0 0,5 -1.201,0 C 2.152,15.5 0,17.652 0,20.299 L 0,49.667 C 0,52.332 2.168,54.5 4.833,54.5 l 50.334,0 C 57.832,54.5 60,52.332 60,49.667 L 60,20.299 C 60,17.652 57.848,15.5 55.201,15.5 Z m -45.201,0 -2,0 0,-3 2,0 0,3 z m 20,35 c -9.925,0 -18,-8.075 -18,-18 0,-9.925 8.075,-18 18,-18 9.925,0 18,8.075 18,18 0,9.925 -8.075,18 -18,18 z m 22,-23 c -2.206,0 -4,-1.794 -4,-4 0,-2.206 1.794,-4 4,-4 2.206,0 4,1.794 4,4 0,2.206 -1.794,4 -4,4 z"
       id="path7"
       inkscape:connector-curvature="0"
       style="fill:#ffffff" /></g><g
     id="g9"
     transform="matrix(0.58491873,0,0,0.58491873,12.452438,12.452438)" /><g
     id="g11"
     transform="matrix(0.58491873,0,0,0.58491873,12.452438,12.452438)" /><g
     id="g13"
     transform="matrix(0.58491873,0,0,0.58491873,12.452438,12.452438)" /><g
     id="g15"
     transform="matrix(0.58491873,0,0,0.58491873,12.452438,12.452438)" /><g
     id="g17"
     transform="matrix(0.58491873,0,0,0.58491873,12.452438,12.452438)" /><g
     id="g19"
     transform="matrix(0.58491873,0,0,0.58491873,12.452438,12.452438)" /><g
     id="g21"
     transform="matrix(0.58491873,0,0,0.58491873,12.452438,12.452438)" /><g
     id="g23"
     transform="matrix(0.58491873,0,0,0.58491873,12.452438,12.452438)" /><g
     id="g25"
     transform="matrix(0.58491873,0,0,0.58491873,12.452438,12.452438)" /><g
     id="g27"
     transform="matrix(0.58491873,0,0,0.58491873,12.452438,12.452438)" /><g
     id="g29"
     transform="matrix(0.58491873,0,0,0.58491873,12.452438,12.452438)" /><g
     id="g31"
     transform="matrix(0.58491873,0,0,0.58491873,12.452438,12.452438)" /><g
     id="g33"
     transform="matrix(0.58491873,0,0,0.58491873,12.452438,12.452438)" /><g
     id="g35"
     transform="matrix(0.58491873,0,0,0.58491873,12.452438,12.452438)" /><g
     id="g37"
     transform="matrix(0.58491873,0,0,0.58491873,12.452438,12.452438)" /></svg>