<?xml version="1.0" encoding="UTF-8" standalone="no"?>
<!-- Generator: Adobe Illustrator 19.0.0, SVG Export Plug-In . SVG Version: 6.00 Build 0)  -->

<svg
   xmlns:dc="http://purl.org/dc/elements/1.1/"
   xmlns:cc="http://creativecommons.org/ns#"
   xmlns:rdf="http://www.w3.org/1999/02/22-rdf-syntax-ns#"
   xmlns:svg="http://www.w3.org/2000/svg"
   xmlns="http://www.w3.org/2000/svg"
   xmlns:sodipodi="http://sodipodi.sourceforge.net/DTD/sodipodi-0.dtd"
   xmlns:inkscape="http://www.inkscape.org/namespaces/inkscape"
   version="1.1"
   id="Layer_1"
   x="0px"
   y="0px"
   viewBox="0 0 455 455"
   style="enable-background:new 0 0 455 455;"
   xml:space="preserve"
   width="512px"
   height="512px"
   inkscape:version="0.91 r13725"
   sodipodi:docname="phonecall.svg"><metadata
     id="metadata39"><rdf:RDF><cc:Work
         rdf:about=""><dc:format>image/svg+xml</dc:format><dc:type
           rdf:resource="http://purl.org/dc/dcmitype/StillImage" /></cc:Work></rdf:RDF></metadata><defs
     id="defs37" /><sodipodi:namedview
     pagecolor="#ffffff"
     bordercolor="#666666"
     borderopacity="1"
     objecttolerance="10"
     gridtolerance="10"
     guidetolerance="10"
     inkscape:pageopacity="0"
     inkscape:pageshadow="2"
     inkscape:window-width="1366"
     inkscape:window-height="705"
     id="namedview35"
     showgrid="false"
     inkscape:zoom="0.4609375"
     inkscape:cx="256"
     inkscape:cy="256"
     inkscape:window-x="-8"
     inkscape:window-y="-8"
     inkscape:window-maximized="1"
     inkscape:current-layer="Layer_1" /><path
     d="m 159.22975,262.57321 25.82764,25.82764 103.34327,-103.34328 -25.82763,-25.82763 64.76,-64.759422 c 0,0 30.94708,28.468932 33.02819,51.049472 2.78515,30.22433 -29.20804,85.17523 -79.43711,135.40488 -50.22908,50.22849 -105.17997,82.22168 -135.40372,79.43712 -22.58054,-2.08228 -51.050055,-33.02877 -51.050055,-33.02877 l 64.759415,-64.76001 z"
     id="path3"
     inkscape:connector-curvature="0"
     style="fill:#ffffff" /><g
     id="g5"
     transform="matrix(0.58474571,0,0,0.58474571,94.470335,94.470518)" /><g
     id="g7"
     transform="matrix(0.58474571,0,0,0.58474571,94.470335,94.470518)" /><g
     id="g9"
     transform="matrix(0.58474571,0,0,0.58474571,94.470335,94.470518)" /><g
     id="g11"
     transform="matrix(0.58474571,0,0,0.58474571,94.470335,94.470518)" /><g
     id="g13"
     transform="matrix(0.58474571,0,0,0.58474571,94.470335,94.470518)" /><g
     id="g15"
     transform="matrix(0.58474571,0,0,0.58474571,94.470335,94.470518)" /><g
     id="g17"
     transform="matrix(0.58474571,0,0,0.58474571,94.470335,94.470518)" /><g
     id="g19"
     transform="matrix(0.58474571,0,0,0.58474571,94.470335,94.470518)" /><g
     id="g21"
     transform="matrix(0.58474571,0,0,0.58474571,94.470335,94.470518)" /><g
     id="g23"
     transform="matrix(0.58474571,0,0,0.58474571,94.470335,94.470518)" /><g
     id="g25"
     transform="matrix(0.58474571,0,0,0.58474571,94.470335,94.470518)" /><g
     id="g27"
     transform="matrix(0.58474571,0,0,0.58474571,94.470335,94.470518)" /><g
     id="g29"
     transform="matrix(0.58474571,0,0,0.58474571,94.470335,94.470518)" /><g
     id="g31"
     transform="matrix(0.58474571,0,0,0.58474571,94.470335,94.470518)" /><g
     id="g33"
     transform="matrix(0.58474571,0,0,0.58474571,94.470335,94.470518)" /></svg>