<?xml version="1.0" encoding="UTF-8" standalone="no"?>
<!-- Generator: Adobe Illustrator 19.1.0, SVG Export Plug-In . SVG Version: 6.00 Build 0)  -->

<svg
   xmlns:dc="http://purl.org/dc/elements/1.1/"
   xmlns:cc="http://creativecommons.org/ns#"
   xmlns:rdf="http://www.w3.org/1999/02/22-rdf-syntax-ns#"
   xmlns:svg="http://www.w3.org/2000/svg"
   xmlns="http://www.w3.org/2000/svg"
   xmlns:sodipodi="http://sodipodi.sourceforge.net/DTD/sodipodi-0.dtd"
   xmlns:inkscape="http://www.inkscape.org/namespaces/inkscape"
   version="1.1"
   id="Capa_1"
   x="0px"
   y="0px"
   viewBox="0 0 483.688 483.688"
   style="enable-background:new 0 0 483.688 483.688;"
   xml:space="preserve"
   width="512px"
   height="512px"
   inkscape:version="0.91 r13725"
   sodipodi:docname="shoppingcart-hover.svg"><metadata
     id="metadata41"><rdf:RDF><cc:Work
         rdf:about=""><dc:format>image/svg+xml</dc:format><dc:type
           rdf:resource="http://purl.org/dc/dcmitype/StillImage" /><dc:title /></cc:Work></rdf:RDF></metadata><defs
     id="defs39" /><sodipodi:namedview
     pagecolor="#ffffff"
     bordercolor="#666666"
     borderopacity="1"
     objecttolerance="10"
     gridtolerance="10"
     guidetolerance="10"
     inkscape:pageopacity="0"
     inkscape:pageshadow="2"
     inkscape:window-width="1366"
     inkscape:window-height="705"
     id="namedview37"
     showgrid="false"
     inkscape:zoom="0.4609375"
     inkscape:cx="-384"
     inkscape:cy="256"
     inkscape:window-x="-8"
     inkscape:window-y="-8"
     inkscape:window-maximized="1"
     inkscape:current-layer="Capa_1" /><g
     id="g3"
     transform="matrix(0.58474557,0,0,0.58474557,100.42674,100.42681)"
     style="fill:#c50b0b;fill-opacity:1"><path
       d="M 473.6,92.43 C 464.9,81.83 451.7,75.93 438,75.93 l -297.3,0 c -8.5,0 -16.6,2.4 -23.6,6.7 L 101.9,29.53 C 99.4,20.83 91.5,14.83 82.5,14.83 l -23.1,0 -44.1,0 C 6.9,14.83 0,21.63 0,30.13 l 0,1.6 c 0,8.4 6.8,15.3 15.3,15.3 l 57.8,0 29.5,104.3 40.6,143.9 c -23.1,5.8 -40.2,26.7 -40.2,51.5 0,28.1 21.9,51.2 49.6,53 -2.3,6.6 -3.4,13.9 -2.8,21.4 2,25.4 22.7,45.9 48.1,47.6 30.3,2.1 55.6,-22 55.6,-51.8 0,-6 -1,-11.7 -2.9,-17.1 l 60.8,0 c -2.5,7.1 -3.5,15 -2.6,23.1 2.8,24.6 23.1,44 47.9,45.8 30.3,2.1 55.7,-21.9 55.7,-51.8 0,-28.9 -24,-52 -52.8,-52 l -203.1,0 c -9.9,0 -18.3,-7.7 -18.7,-17.5 -0.4,-10.4 7.9,-18.9 18.2,-18.9 l 30.5,0 165.3,0 46.5,0 c 20.6,0 38.6,-14.1 43.6,-34.1 l 40.4,-162.6 c 3.5,-14 0.3,-28.3 -8.7,-39.4 z m -113.1,307.3 c 9.4,0 17.1,7.7 17.1,17.1 0,9.4 -7.7,17.1 -17.1,17.1 -9.4,0 -17.1,-7.7 -17.1,-17.1 0,-9.4 7.6,-17.1 17.1,-17.1 z m -158.9,0 c 9.4,0 17.1,7.7 17.1,17.1 0,9.4 -7.7,17.1 -17.1,17.1 -9.4,0 -17.1,-7.7 -17.1,-17.1 0,-9.4 7.6,-17.1 17.1,-17.1 z m -62.8,-248.6 -7.8,-27.5 c -1.2,-4.2 0.5,-7.3 1.7,-8.8 1.1,-1.5 3.7,-4 8,-4 l 32.6,0 8.9,40.4 -43.4,0 0,-0.1 z m 9.8,34.8 41.2,0 8.2,37.4 -38.9,0 -10.5,-37.4 z m 37.9,107.6 c -4.5,0 -8.5,-3 -9.7,-7.4 l -7.9,-28 36.7,0 7.8,35.3 -26.9,0 0,0.1 z m 87.1,0 -24.6,0 -7.8,-35.3 32.3,0 0,35.3 0.1,0 z m 0,-70.2 -40,0 -8.2,-37.4 48.2,0 0,37.4 z m 0,-72.2 -55.8,0 -8.9,-40.4 64.7,0 0,40.4 z m 62.4,142.4 -27.5,0 0,-35.3 34.9,0 -7.4,35.3 z m 14.8,-70.2 -42.3,0 0,-37.4 50.2,0 -7.9,37.4 z m -42.3,-72.2 0,-40.4 66,0 -8.5,40.4 -57.5,0 z m 99.7,134.8 c -1.1,4.5 -5.1,7.7 -9.8,7.7 l -26.8,0 7.5,-35.3 36,0 -6.9,27.6 z m 15.5,-62.6 -37.3,0 7.9,-37.4 38.7,0 -9.3,37.4 z m 24.8,-100.1 -6.9,27.8 -40,0 8.5,-40.4 28.6,0 c 4.3,0 6.8,2.4 7.9,3.9 1.2,1.5 3,4.6 1.9,8.7 z"
       id="path5"
       inkscape:connector-curvature="0"
       style="fill:#c50b0b;fill-opacity:1" /></g><g
     id="g7"
     transform="matrix(0.58474557,0,0,0.58474557,100.42674,100.42681)"
     style="fill:#c50b0b;fill-opacity:1" /><g
     id="g9"
     transform="matrix(0.58474557,0,0,0.58474557,100.42674,100.42681)"
     style="fill:#c50b0b;fill-opacity:1" /><g
     id="g11"
     transform="matrix(0.58474557,0,0,0.58474557,100.42674,100.42681)"
     style="fill:#c50b0b;fill-opacity:1" /><g
     id="g13"
     transform="matrix(0.58474557,0,0,0.58474557,100.42674,100.42681)"
     style="fill:#c50b0b;fill-opacity:1" /><g
     id="g15"
     transform="matrix(0.58474557,0,0,0.58474557,100.42674,100.42681)"
     style="fill:#c50b0b;fill-opacity:1" /><g
     id="g17"
     transform="matrix(0.58474557,0,0,0.58474557,100.42674,100.42681)"
     style="fill:#c50b0b;fill-opacity:1" /><g
     id="g19"
     transform="matrix(0.58474557,0,0,0.58474557,100.42674,100.42681)"
     style="fill:#c50b0b;fill-opacity:1" /><g
     id="g21"
     transform="matrix(0.58474557,0,0,0.58474557,100.42674,100.42681)"
     style="fill:#c50b0b;fill-opacity:1" /><g
     id="g23"
     transform="matrix(0.58474557,0,0,0.58474557,100.42674,100.42681)"
     style="fill:#c50b0b;fill-opacity:1" /><g
     id="g25"
     transform="matrix(0.58474557,0,0,0.58474557,100.42674,100.42681)"
     style="fill:#c50b0b;fill-opacity:1" /><g
     id="g27"
     transform="matrix(0.58474557,0,0,0.58474557,100.42674,100.42681)"
     style="fill:#c50b0b;fill-opacity:1" /><g
     id="g29"
     transform="matrix(0.58474557,0,0,0.58474557,100.42674,100.42681)"
     style="fill:#c50b0b;fill-opacity:1" /><g
     id="g31"
     transform="matrix(0.58474557,0,0,0.58474557,100.42674,100.42681)"
     style="fill:#c50b0b;fill-opacity:1" /><g
     id="g33"
     transform="matrix(0.58474557,0,0,0.58474557,100.42674,100.42681)"
     style="fill:#c50b0b;fill-opacity:1" /><g
     id="g35"
     transform="matrix(0.58474557,0,0,0.58474557,100.42674,100.42681)"
     style="fill:#c50b0b;fill-opacity:1" /></svg>